# xmcd
#
# Track frame offsets: 
#        150
#        27707
#        61327
#        89252
#        118487
#        144862
#        169737
#        198895
#        229282
#        258625
#        285627
#        306175
#        319895
#
# Disc length: 4465 seconds
#
# Revision: 2
# Processed by: cddbd v1.5.2PL0 Copyright (c) Steve Scherf et al.
# Submitted via: ExactAudioCopy v0.99pb4
#
DISCID=c2116f0d
DTITLE=The Source - The Source
DYEAR=2006
DGENRE=Jazz
TTITLE0=Caballero
TTITLE1=Un Fingo Andalou
TTITLE2=Libanera
TTITLE3=Prelude To A Boy
TTITLE4=Tamboura Rasa
TTITLE5=Mmball
TTITLE6=Osterled
TTITLE7=Life So Far
TTITLE8=Tribute
TTITLE9=Mail Me Or Leave Me
TTITLE10=Alle Bla De Er
TTITLE11=Water Glass Rhapsody
TTITLE12=A Surrender Tryptich
EXTD=Trygve Seim: tenor and soprano saxophones\nØyvind Brække: trombon
EXTD=e\nMats Eilertsen: double-bass\nPer Oddvar Johansen: drums\nProdu
EXTD=ced by Manfred Eicher\n(c) 2006 ECM Records GmbH YEAR: 2006
EXTT0=
EXTT1=
EXTT2=
EXTT3=
EXTT4=
EXTT5=
EXTT6=
EXTT7=
EXTT8=
EXTT9=
EXTT10=
EXTT11=
EXTT12=
PLAYORDER=
